<svg xmlns="http://www.w3.org/2000/svg" xmlns:xlink="http://www.w3.org/1999/xlink" width="48" zoomAndPan="magnify" viewBox="0 0 36 36.000001" height="48" preserveAspectRatio="xMidYMid meet" version="1.0"><defs><g/><clipPath id="e2bee42961"><path d="M 16 12.789062 L 18 12.789062 L 18 14 L 16 14 Z M 16 12.789062 " clip-rule="nonzero"/></clipPath><clipPath id="79dbe19c0f"><path d="M 17 12.789062 L 18 12.789062 L 18 14 L 17 14 Z M 17 12.789062 " clip-rule="nonzero"/></clipPath><clipPath id="44e106d5d1"><path d="M 18 12.789062 L 19 12.789062 L 19 14 L 18 14 Z M 18 12.789062 " clip-rule="nonzero"/></clipPath><clipPath id="41fd29b409"><path d="M 16 18 L 17 18 L 17 20.816406 L 16 20.816406 Z M 16 18 " clip-rule="nonzero"/></clipPath><clipPath id="1a6f849b8f"><path d="M 19 18 L 20 18 L 20 20.816406 L 19 20.816406 Z M 19 18 " clip-rule="nonzero"/></clipPath><clipPath id="297c2d03b8"><path d="M 15 19 L 17 19 L 17 20.816406 L 15 20.816406 Z M 15 19 " clip-rule="nonzero"/></clipPath><clipPath id="43675eaeac"><path d="M 19 19 L 21 19 L 21 20.816406 L 19 20.816406 Z M 19 19 " clip-rule="nonzero"/></clipPath><clipPath id="d3e1a08faf"><path d="M 12.390625 17 L 14 17 L 14 19 L 12.390625 19 Z M 12.390625 17 " clip-rule="nonzero"/></clipPath><clipPath id="b7faad10ba"><path d="M 21 17 L 23.304688 17 L 23.304688 19 L 21 19 Z M 21 17 " clip-rule="nonzero"/></clipPath><clipPath id="a70c4d52e2"><path d="M 12.390625 17 L 14 17 L 14 18 L 12.390625 18 Z M 12.390625 17 " clip-rule="nonzero"/></clipPath><clipPath id="5b4fa0bf20"><path d="M 22 17 L 23.304688 17 L 23.304688 18 L 22 18 Z M 22 17 " clip-rule="nonzero"/></clipPath><clipPath id="ee593ec685"><path d="M 12.390625 16 L 14 16 L 14 18 L 12.390625 18 Z M 12.390625 16 " clip-rule="nonzero"/></clipPath><clipPath id="9d14cf66d1"><path d="M 22 16 L 23.304688 16 L 23.304688 18 L 22 18 Z M 22 16 " clip-rule="nonzero"/></clipPath><clipPath id="6e8f9222a2"><path d="M 12.390625 15 L 13 15 L 13 17 L 12.390625 17 Z M 12.390625 15 " clip-rule="nonzero"/></clipPath><clipPath id="4123b7cddd"><path d="M 22 15 L 23.304688 15 L 23.304688 17 L 22 17 Z M 22 15 " clip-rule="nonzero"/></clipPath><clipPath id="5c2ad3d521"><path d="M 12.390625 15 L 14 15 L 14 17 L 12.390625 17 Z M 12.390625 15 " clip-rule="nonzero"/></clipPath><clipPath id="e508407e92"><path d="M 12.390625 14 L 14 14 L 14 16 L 12.390625 16 Z M 12.390625 14 " clip-rule="nonzero"/></clipPath><clipPath id="53c0f3e951"><path d="M 12.390625 14 L 13 14 L 13 16 L 12.390625 16 Z M 12.390625 14 " clip-rule="nonzero"/></clipPath><clipPath id="92df9f5962"><path d="M 23 14 L 23.304688 14 L 23.304688 16 L 23 16 Z M 23 14 " clip-rule="nonzero"/></clipPath><clipPath id="ff2b083017"><path d="M 12.390625 13 L 14 13 L 14 15 L 12.390625 15 Z M 12.390625 13 " clip-rule="nonzero"/></clipPath><clipPath id="081eecc630"><path d="M 22 13 L 23.304688 13 L 23.304688 15 L 22 15 Z M 22 13 " clip-rule="nonzero"/></clipPath><clipPath id="54373cfea7"><path d="M 16 19 L 18 19 L 18 20.816406 L 16 20.816406 Z M 16 19 " clip-rule="nonzero"/></clipPath><clipPath id="9f8bd2b6df"><path d="M 18 19 L 20 19 L 20 20.816406 L 18 20.816406 Z M 18 19 " clip-rule="nonzero"/></clipPath><clipPath id="8626b67b35"><path d="M 16 20 L 18 20 L 18 20.816406 L 16 20.816406 Z M 16 20 " clip-rule="nonzero"/></clipPath><clipPath id="7881608e22"><path d="M 18 20 L 20 20 L 20 20.816406 L 18 20.816406 Z M 18 20 " clip-rule="nonzero"/></clipPath><clipPath id="0c4fbfd5da"><path d="M 14 18 L 22 18 L 22 20.816406 L 14 20.816406 Z M 14 18 " clip-rule="nonzero"/></clipPath><clipPath id="935a957d3b"><path d="M 14.53125 12.019531 L 21.460938 12.019531 L 21.460938 18.949219 L 14.53125 18.949219 Z M 14.53125 12.019531 " clip-rule="nonzero"/></clipPath><clipPath id="c87532da8a"><path d="M 17.996094 12.019531 C 16.082031 12.019531 14.53125 13.570312 14.53125 15.484375 C 14.53125 17.398438 16.082031 18.949219 17.996094 18.949219 C 19.910156 18.949219 21.460938 17.398438 21.460938 15.484375 C 21.460938 13.570312 19.910156 12.019531 17.996094 12.019531 Z M 17.996094 12.019531 " clip-rule="nonzero"/></clipPath><clipPath id="5e3523b8ef"><path d="M 10.863281 15.335938 L 14.886719 15.335938 L 14.886719 16.722656 L 10.863281 16.722656 Z M 10.863281 15.335938 " clip-rule="nonzero"/></clipPath><clipPath id="c75496ce8d"><path d="M 21.113281 15.191406 L 25.136719 15.191406 L 25.136719 16.574219 L 21.113281 16.574219 Z M 21.113281 15.191406 " clip-rule="nonzero"/></clipPath><clipPath id="e54bd71a98"><path d="M 15 10 L 20.726562 10 L 20.726562 18 L 15 18 Z M 15 10 " clip-rule="nonzero"/></clipPath><clipPath id="b99e1013f8"><path d="M 16 15 L 20.726562 15 L 20.726562 18.753906 L 16 18.753906 Z M 16 15 " clip-rule="nonzero"/></clipPath></defs><path fill="#000000" d="M 19.371094 18.429688 C 19.289062 18.410156 19.210938 18.378906 19.136719 18.339844 L 19.039062 18.367188 C 19.121094 18.417969 19.210938 18.457031 19.300781 18.488281 C 19.398438 18.515625 19.457031 18.503906 19.457031 18.476562 C 19.457031 18.445312 19.449219 18.4375 19.371094 18.429688 Z M 19.371094 18.429688 " fill-opacity="1" fill-rule="nonzero"/><path fill="#000000" d="M 19.191406 18.203125 C 19.183594 18.148438 19.148438 18.125 19.09375 18.132812 C 19.09375 18.132812 18.386719 18.195312 17.925781 18.226562 C 17.464844 18.253906 16.558594 18.121094 16.558594 18.121094 C 16.363281 18.085938 16.332031 18.1875 16.332031 18.1875 C 16.273438 18.34375 16.410156 18.375 16.410156 18.375 C 16.738281 18.480469 17.148438 18.503906 17.789062 18.503906 C 18.429688 18.5 19.109375 18.308594 19.109375 18.308594 C 19.109375 18.308594 19.203125 18.289062 19.191406 18.203125 Z M 16.5 18.3125 C 16.464844 18.3125 16.445312 18.292969 16.445312 18.253906 C 16.445312 18.21875 16.464844 18.199219 16.5 18.199219 C 16.539062 18.199219 16.558594 18.21875 16.558594 18.253906 C 16.558594 18.292969 16.539062 18.3125 16.5 18.3125 Z M 18.972656 18.273438 C 18.945312 18.273438 18.929688 18.257812 18.929688 18.230469 C 18.929688 18.203125 18.945312 18.191406 18.972656 18.191406 C 19 18.191406 19.011719 18.203125 19.011719 18.230469 C 19.011719 18.257812 19 18.273438 18.972656 18.273438 Z M 18.972656 18.273438 " fill-opacity="1" fill-rule="nonzero"/><path fill="#000000" d="M 16.898438 17.359375 L 17.972656 17.941406 C 18.027344 17.96875 18.078125 17.972656 18.136719 17.953125 L 18.226562 17.921875 C 18.25 17.914062 18.273438 17.914062 18.292969 17.925781 L 18.675781 18.144531 L 18.929688 18.125 L 17.050781 17.074219 C 17.03125 17.066406 17.015625 17.066406 17.007812 17.085938 L 16.878906 17.273438 C 16.867188 17.289062 16.867188 17.304688 16.871094 17.320312 C 16.875 17.339844 16.882812 17.351562 16.898438 17.359375 Z M 17.027344 17.125 C 17.03125 17.113281 17.039062 17.113281 17.050781 17.117188 L 18.195312 17.746094 L 18.085938 17.910156 L 18.152344 17.761719 L 17.046875 17.152344 L 16.957031 17.234375 Z M 17.027344 17.125 " fill-opacity="1" fill-rule="nonzero"/><path fill="#000000" d="M 16.242188 13.195312 L 16.285156 13.332031 L 16.429688 13.332031 L 16.3125 13.414062 L 16.359375 13.550781 L 16.242188 13.46875 L 16.125 13.550781 L 16.171875 13.414062 L 16.054688 13.332031 L 16.199219 13.332031 Z M 16.242188 13.195312 " fill-opacity="1" fill-rule="nonzero"/><g clip-path="url(#e2bee42961)"><path fill="#000000" d="M 17.015625 12.945312 L 17.0625 13.082031 L 17.203125 13.082031 L 17.089844 13.164062 L 17.132812 13.300781 L 17.015625 13.214844 L 16.902344 13.300781 L 16.945312 13.164062 L 16.828125 13.082031 L 16.972656 13.082031 Z M 17.015625 12.945312 " fill-opacity="1" fill-rule="nonzero"/></g><g clip-path="url(#79dbe19c0f)"><path fill="#000000" d="M 17.792969 12.789062 L 17.835938 12.925781 L 17.976562 12.925781 L 17.863281 13.007812 L 17.90625 13.144531 L 17.792969 13.058594 L 17.675781 13.144531 L 17.71875 13.007812 L 17.605469 12.925781 L 17.746094 12.925781 Z M 17.792969 12.789062 " fill-opacity="1" fill-rule="nonzero"/></g><g clip-path="url(#44e106d5d1)"><path fill="#000000" d="M 18.566406 12.945312 L 18.609375 13.082031 L 18.753906 13.082031 L 18.636719 13.164062 L 18.679688 13.300781 L 18.566406 13.214844 L 18.449219 13.300781 L 18.492188 13.164062 L 18.378906 13.082031 L 18.519531 13.082031 Z M 18.566406 12.945312 " fill-opacity="1" fill-rule="nonzero"/></g><path fill="#000000" d="M 19.339844 13.195312 L 19.382812 13.332031 L 19.527344 13.332031 L 19.410156 13.414062 L 19.457031 13.550781 L 19.339844 13.46875 L 19.222656 13.550781 L 19.269531 13.414062 L 19.152344 13.332031 L 19.296875 13.332031 Z M 19.339844 13.195312 " fill-opacity="1" fill-rule="nonzero"/><g clip-path="url(#41fd29b409)"><path fill="#000000" d="M 16.660156 19.9375 L 16.84375 20.035156 C 16.835938 19.921875 16.808594 19.816406 16.765625 19.714844 C 16.636719 19.417969 16.378906 19.125 16.089844 18.929688 C 16.089844 19.027344 16.097656 19.121094 16.121094 19.214844 C 16.1875 19.539062 16.367188 19.78125 16.660156 19.9375 Z M 16.660156 19.9375 " fill-opacity="1" fill-rule="nonzero"/></g><g clip-path="url(#1a6f849b8f)"><path fill="#000000" d="M 19.269531 19.9375 L 19.082031 20.035156 C 19.09375 19.925781 19.117188 19.816406 19.164062 19.714844 C 19.289062 19.417969 19.546875 19.125 19.835938 18.929688 C 19.839844 19.027344 19.828125 19.121094 19.808594 19.214844 C 19.742188 19.539062 19.5625 19.78125 19.269531 19.9375 Z M 19.269531 19.9375 " fill-opacity="1" fill-rule="nonzero"/></g><g clip-path="url(#297c2d03b8)"><path fill="#000000" d="M 16.414062 20.347656 C 16.523438 20.328125 16.628906 20.292969 16.726562 20.242188 C 16.546875 20.140625 16.519531 20.125 16.46875 20.09375 C 16.257812 19.976562 16.035156 19.957031 15.808594 20.03125 C 15.664062 20.074219 15.527344 20.140625 15.402344 20.226562 C 15.617188 20.308594 15.839844 20.355469 16.070312 20.367188 C 16.183594 20.375 16.300781 20.367188 16.414062 20.347656 Z M 16.414062 20.347656 " fill-opacity="1" fill-rule="nonzero"/></g><g clip-path="url(#43675eaeac)"><path fill="#000000" d="M 19.511719 20.347656 C 19.402344 20.328125 19.300781 20.292969 19.203125 20.242188 C 19.382812 20.140625 19.410156 20.125 19.460938 20.09375 C 19.671875 19.976562 19.890625 19.957031 20.121094 20.03125 C 20.265625 20.074219 20.398438 20.140625 20.523438 20.226562 C 20.308594 20.308594 20.085938 20.355469 19.859375 20.367188 C 19.742188 20.375 19.625 20.367188 19.511719 20.347656 Z M 19.511719 20.347656 " fill-opacity="1" fill-rule="nonzero"/></g><path fill="#000000" d="M 16.019531 19.84375 L 15.867188 19.757812 C 15.570312 19.59375 15.269531 19.582031 14.957031 19.71875 C 14.878906 19.75 14.804688 19.792969 14.734375 19.839844 C 15.074219 19.988281 15.652344 20.050781 16.019531 19.84375 Z M 16.019531 19.84375 " fill-opacity="1" fill-rule="nonzero"/><path fill="#000000" d="M 19.910156 19.84375 L 20.058594 19.757812 C 20.355469 19.59375 20.660156 19.582031 20.972656 19.71875 C 21.050781 19.75 21.125 19.792969 21.195312 19.839844 C 20.851562 19.988281 20.273438 20.050781 19.910156 19.84375 Z M 19.910156 19.84375 " fill-opacity="1" fill-rule="nonzero"/><path fill="#000000" d="M 15.8125 19.496094 L 16.121094 19.65625 C 16.097656 19.363281 15.898438 18.953125 15.390625 18.59375 C 15.378906 18.710938 15.421875 18.9375 15.492188 19.136719 C 15.550781 19.296875 15.65625 19.417969 15.8125 19.496094 Z M 15.8125 19.496094 " fill-opacity="1" fill-rule="nonzero"/><path fill="#000000" d="M 20.117188 19.496094 L 19.808594 19.65625 C 19.828125 19.363281 20.027344 18.953125 20.535156 18.59375 C 20.550781 18.710938 20.507812 18.9375 20.433594 19.136719 C 20.375 19.296875 20.269531 19.417969 20.117188 19.496094 Z M 20.117188 19.496094 " fill-opacity="1" fill-rule="nonzero"/><path fill="#000000" d="M 15.210938 19.195312 L 15.371094 19.273438 C 15.347656 18.933594 15.046875 18.503906 14.804688 18.253906 C 14.753906 18.4375 14.765625 18.621094 14.84375 18.796875 C 14.917969 18.972656 15.042969 19.105469 15.210938 19.195312 Z M 15.210938 19.195312 " fill-opacity="1" fill-rule="nonzero"/><path fill="#000000" d="M 20.714844 19.195312 L 20.554688 19.273438 C 20.578125 18.933594 20.878906 18.503906 21.121094 18.253906 C 21.140625 18.324219 21.152344 18.394531 21.152344 18.464844 C 21.160156 18.800781 21.015625 19.042969 20.714844 19.195312 Z M 20.714844 19.195312 " fill-opacity="1" fill-rule="nonzero"/><path fill="#000000" d="M 15.285156 19.441406 C 15.082031 19.328125 14.964844 19.265625 14.828125 19.183594 C 14.613281 19.164062 14.15625 19.246094 13.976562 19.324219 C 14.304688 19.550781 14.882812 19.683594 15.285156 19.441406 Z M 15.285156 19.441406 " fill-opacity="1" fill-rule="nonzero"/><path fill="#000000" d="M 20.640625 19.441406 C 20.84375 19.328125 20.960938 19.265625 21.097656 19.183594 C 21.3125 19.164062 21.769531 19.246094 21.949219 19.324219 C 21.625 19.550781 21.042969 19.683594 20.640625 19.441406 Z M 20.640625 19.441406 " fill-opacity="1" fill-rule="nonzero"/><path fill="#000000" d="M 14.476562 18.757812 C 14.527344 18.796875 14.589844 18.835938 14.65625 18.878906 C 14.671875 18.625 14.5625 18.292969 14.449219 18.0625 C 14.4375 18.039062 14.429688 18.019531 14.417969 18 C 14.40625 17.980469 14.394531 17.960938 14.382812 17.941406 C 14.371094 17.921875 14.359375 17.902344 14.347656 17.882812 C 14.335938 17.867188 14.324219 17.847656 14.3125 17.828125 C 14.285156 17.878906 14.265625 17.933594 14.25 17.988281 C 14.230469 18.054688 14.21875 18.125 14.214844 18.195312 C 14.199219 18.429688 14.285156 18.621094 14.476562 18.757812 Z M 14.476562 18.757812 " fill-opacity="1" fill-rule="nonzero"/><path fill="#000000" d="M 21.449219 18.757812 C 21.398438 18.796875 21.339844 18.835938 21.273438 18.878906 C 21.253906 18.625 21.363281 18.292969 21.476562 18.0625 C 21.488281 18.039062 21.5 18.019531 21.511719 18 C 21.523438 17.980469 21.53125 17.960938 21.542969 17.941406 C 21.554688 17.921875 21.566406 17.902344 21.578125 17.882812 C 21.589844 17.867188 21.601562 17.847656 21.617188 17.828125 C 21.640625 17.878906 21.660156 17.933594 21.675781 17.988281 C 21.695312 18.054688 21.707031 18.125 21.710938 18.195312 C 21.726562 18.429688 21.640625 18.621094 21.449219 18.757812 Z M 21.449219 18.757812 " fill-opacity="1" fill-rule="nonzero"/><path fill="#000000" d="M 14.566406 19.011719 C 14.539062 18.992188 14.511719 18.972656 14.484375 18.957031 C 14.175781 18.730469 13.832031 18.632812 13.449219 18.660156 C 13.410156 18.664062 13.371094 18.667969 13.332031 18.675781 C 13.675781 19.027344 14.214844 19.175781 14.566406 19.011719 Z M 14.566406 19.011719 " fill-opacity="1" fill-rule="nonzero"/><path fill="#000000" d="M 21.359375 19.011719 L 21.441406 18.957031 C 21.75 18.730469 22.097656 18.632812 22.476562 18.660156 C 22.515625 18.664062 22.558594 18.667969 22.597656 18.675781 C 22.253906 19.027344 21.710938 19.175781 21.359375 19.011719 Z M 21.359375 19.011719 " fill-opacity="1" fill-rule="nonzero"/><path fill="#000000" d="M 13.808594 18.140625 L 13.835938 18.171875 C 13.867188 18.207031 13.960938 18.3125 14.039062 18.386719 C 14.058594 18.304688 14.070312 18.222656 14.066406 18.136719 C 14.066406 17.863281 14.011719 17.597656 13.902344 17.34375 C 13.800781 17.476562 13.738281 17.621094 13.710938 17.785156 C 13.691406 17.917969 13.722656 18.035156 13.808594 18.136719 Z M 13.808594 18.140625 " fill-opacity="1" fill-rule="nonzero"/><path fill="#000000" d="M 22.121094 18.140625 L 22.089844 18.171875 C 22.0625 18.207031 21.96875 18.3125 21.890625 18.386719 C 21.867188 18.304688 21.859375 18.222656 21.859375 18.136719 C 21.859375 17.863281 21.917969 17.597656 22.027344 17.34375 C 22.125 17.476562 22.191406 17.625 22.214844 17.789062 C 22.238281 17.917969 22.203125 18.035156 22.121094 18.136719 Z M 22.121094 18.140625 " fill-opacity="1" fill-rule="nonzero"/><g clip-path="url(#d3e1a08faf)"><path fill="#000000" d="M 13.941406 18.480469 C 13.882812 18.421875 13.808594 18.335938 13.734375 18.242188 C 13.636719 18.121094 13.511719 18.039062 13.363281 17.996094 C 13.203125 17.945312 13.039062 17.914062 12.871094 17.902344 C 13.109375 18.304688 13.59375 18.570312 13.941406 18.480469 Z M 13.941406 18.480469 " fill-opacity="1" fill-rule="nonzero"/></g><g clip-path="url(#b7faad10ba)"><path fill="#000000" d="M 21.984375 18.480469 C 22.042969 18.421875 22.121094 18.335938 22.195312 18.242188 C 22.289062 18.121094 22.414062 18.039062 22.5625 17.996094 C 22.722656 17.945312 22.886719 17.914062 23.054688 17.902344 C 22.816406 18.304688 22.332031 18.570312 21.984375 18.480469 Z M 21.984375 18.480469 " fill-opacity="1" fill-rule="nonzero"/></g><path fill="#000000" d="M 13.425781 17.585938 C 13.460938 17.644531 13.492188 17.699219 13.523438 17.746094 C 13.652344 17.527344 13.734375 17.050781 13.65625 16.726562 C 13.535156 16.824219 13.445312 16.945312 13.386719 17.089844 C 13.324219 17.261719 13.335938 17.425781 13.425781 17.585938 Z M 13.425781 17.585938 " fill-opacity="1" fill-rule="nonzero"/><path fill="#000000" d="M 22.5 17.585938 C 22.46875 17.644531 22.433594 17.699219 22.40625 17.746094 C 22.277344 17.527344 22.195312 17.050781 22.273438 16.726562 C 22.394531 16.824219 22.480469 16.945312 22.539062 17.089844 C 22.601562 17.261719 22.589844 17.425781 22.5 17.585938 Z M 22.5 17.585938 " fill-opacity="1" fill-rule="nonzero"/><g clip-path="url(#a70c4d52e2)"><path fill="#000000" d="M 13.324219 17.609375 C 13.269531 17.5 13.1875 17.40625 13.089844 17.328125 C 12.917969 17.199219 12.726562 17.109375 12.523438 17.050781 C 12.683594 17.535156 13.121094 17.820312 13.433594 17.804688 C 13.378906 17.710938 13.347656 17.65625 13.324219 17.609375 Z M 13.324219 17.609375 " fill-opacity="1" fill-rule="nonzero"/></g><g clip-path="url(#5b4fa0bf20)"><path fill="#000000" d="M 22.601562 17.609375 C 22.660156 17.5 22.738281 17.40625 22.839844 17.328125 C 23.011719 17.199219 23.199219 17.109375 23.40625 17.050781 C 23.242188 17.535156 22.804688 17.820312 22.496094 17.804688 C 22.550781 17.710938 22.578125 17.65625 22.601562 17.609375 Z M 22.601562 17.609375 " fill-opacity="1" fill-rule="nonzero"/></g><path fill="#000000" d="M 13.175781 17.03125 C 13.355469 16.847656 13.527344 16.417969 13.503906 16.082031 C 13.347656 16.179688 13.238281 16.3125 13.175781 16.484375 C 13.109375 16.660156 13.109375 16.832031 13.171875 17.007812 C 13.171875 17.015625 13.175781 17.023438 13.175781 17.03125 Z M 13.175781 17.03125 " fill-opacity="1" fill-rule="nonzero"/><path fill="#000000" d="M 22.75 17.03125 C 22.570312 16.847656 22.398438 16.417969 22.421875 16.082031 C 22.578125 16.179688 22.691406 16.3125 22.753906 16.484375 C 22.816406 16.660156 22.816406 16.832031 22.757812 17.007812 C 22.753906 17.015625 22.753906 17.023438 22.75 17.03125 Z M 22.75 17.03125 " fill-opacity="1" fill-rule="nonzero"/><g clip-path="url(#ee593ec685)"><path fill="#000000" d="M 13.101562 17.058594 C 13.082031 17.003906 13.0625 16.9375 13.050781 16.878906 C 13.027344 16.792969 12.992188 16.710938 12.941406 16.636719 C 12.863281 16.523438 12.757812 16.414062 12.542969 16.277344 C 12.492188 16.246094 12.441406 16.214844 12.390625 16.191406 C 12.402344 16.308594 12.4375 16.417969 12.488281 16.527344 C 12.59375 16.765625 12.84375 17.023438 13.101562 17.058594 Z M 13.101562 17.058594 " fill-opacity="1" fill-rule="nonzero"/></g><g clip-path="url(#9d14cf66d1)"><path fill="#000000" d="M 22.824219 17.058594 C 22.84375 17.003906 22.863281 16.9375 22.878906 16.878906 C 22.898438 16.792969 22.9375 16.710938 22.984375 16.636719 C 23.0625 16.523438 23.167969 16.414062 23.386719 16.277344 C 23.433594 16.246094 23.484375 16.21875 23.535156 16.191406 C 23.523438 16.308594 23.488281 16.421875 23.4375 16.527344 C 23.332031 16.765625 23.082031 17.023438 22.824219 17.058594 Z M 22.824219 17.058594 " fill-opacity="1" fill-rule="nonzero"/></g><g clip-path="url(#6e8f9222a2)"><path fill="#000000" d="M 12.9375 16.265625 C 12.910156 16.023438 12.910156 15.699219 12.40625 15.34375 C 12.382812 15.808594 12.695312 16.1875 12.9375 16.265625 Z M 12.9375 16.265625 " fill-opacity="1" fill-rule="nonzero"/></g><g clip-path="url(#4123b7cddd)"><path fill="#000000" d="M 22.992188 16.265625 C 23.019531 16.023438 23.019531 15.699219 23.523438 15.34375 C 23.542969 15.808594 23.234375 16.1875 22.992188 16.265625 Z M 22.992188 16.265625 " fill-opacity="1" fill-rule="nonzero"/></g><g clip-path="url(#5c2ad3d521)"><path fill="#000000" d="M 13.457031 15.410156 C 13.296875 15.480469 13.171875 15.59375 13.085938 15.746094 C 12.996094 15.898438 12.964844 16.066406 12.988281 16.238281 C 12.988281 16.246094 12.988281 16.25 12.988281 16.253906 C 13.195312 16.121094 13.441406 15.738281 13.464844 15.402344 Z M 13.457031 15.410156 " fill-opacity="1" fill-rule="nonzero"/></g><path fill="#000000" d="M 22.46875 15.410156 C 22.632812 15.480469 22.753906 15.59375 22.84375 15.746094 C 22.929688 15.898438 22.960938 16.066406 22.9375 16.238281 C 22.9375 16.246094 22.9375 16.25 22.9375 16.253906 C 22.730469 16.121094 22.488281 15.738281 22.460938 15.402344 Z M 22.46875 15.410156 " fill-opacity="1" fill-rule="nonzero"/><g clip-path="url(#e508407e92)"><path fill="#000000" d="M 12.949219 15.453125 C 13.117188 15.390625 13.453125 15.09375 13.527344 14.714844 C 13.105469 14.839844 12.957031 15.105469 12.949219 15.453125 Z M 12.949219 15.453125 " fill-opacity="1" fill-rule="nonzero"/></g><path fill="#000000" d="M 22.976562 15.453125 C 22.8125 15.390625 22.476562 15.09375 22.398438 14.714844 C 22.824219 14.839844 22.96875 15.105469 22.976562 15.453125 Z M 22.976562 15.453125 " fill-opacity="1" fill-rule="nonzero"/><g clip-path="url(#53c0f3e951)"><path fill="#000000" d="M 12.921875 15.453125 C 12.941406 15.113281 12.878906 14.835938 12.539062 14.519531 C 12.453125 14.960938 12.714844 15.359375 12.921875 15.453125 Z M 12.921875 15.453125 " fill-opacity="1" fill-rule="nonzero"/></g><g clip-path="url(#92df9f5962)"><path fill="#000000" d="M 23.007812 15.453125 C 22.984375 15.113281 23.046875 14.835938 23.386719 14.519531 C 23.476562 14.960938 23.210938 15.359375 23.007812 15.453125 Z M 23.007812 15.453125 " fill-opacity="1" fill-rule="nonzero"/></g><g clip-path="url(#ff2b083017)"><path fill="#000000" d="M 13.234375 13.878906 C 12.9375 14.074219 12.753906 14.53125 12.992188 14.792969 C 13.300781 14.628906 13.316406 14.21875 13.234375 13.878906 Z M 13.234375 13.878906 " fill-opacity="1" fill-rule="nonzero"/></g><g clip-path="url(#081eecc630)"><path fill="#000000" d="M 22.691406 13.878906 C 22.992188 14.078125 23.171875 14.53125 22.933594 14.792969 C 22.625 14.628906 22.609375 14.21875 22.691406 13.878906 Z M 22.691406 13.878906 " fill-opacity="1" fill-rule="nonzero"/></g><g clip-path="url(#54373cfea7)"><path fill="#000000" d="M 17.367188 20.320312 C 17.421875 20.351562 17.464844 20.375 17.605469 20.457031 C 17.589844 20.105469 17.359375 19.769531 17.105469 19.519531 C 17.023438 19.441406 16.933594 19.367188 16.839844 19.300781 C 16.839844 19.429688 16.855469 19.558594 16.886719 19.683594 C 16.953125 19.964844 17.113281 20.179688 17.367188 20.320312 Z M 17.367188 20.320312 " fill-opacity="1" fill-rule="nonzero"/></g><g clip-path="url(#9f8bd2b6df)"><path fill="#000000" d="M 18.5625 20.320312 C 18.503906 20.351562 18.464844 20.375 18.320312 20.457031 C 18.335938 20.105469 18.566406 19.769531 18.820312 19.519531 C 18.902344 19.441406 18.992188 19.367188 19.085938 19.300781 C 19.089844 19.429688 19.074219 19.558594 19.039062 19.683594 C 18.972656 19.964844 18.8125 20.179688 18.5625 20.320312 Z M 18.5625 20.320312 " fill-opacity="1" fill-rule="nonzero"/></g><g clip-path="url(#8626b67b35)"><path fill="#000000" d="M 17.242188 20.546875 C 16.992188 20.394531 16.726562 20.367188 16.453125 20.46875 C 16.332031 20.507812 16.21875 20.5625 16.113281 20.636719 C 16.5 20.789062 17.0625 20.878906 17.46875 20.683594 C 17.335938 20.601562 17.292969 20.574219 17.242188 20.546875 Z M 17.242188 20.546875 " fill-opacity="1" fill-rule="nonzero"/></g><g clip-path="url(#7881608e22)"><path fill="#000000" d="M 18.6875 20.546875 C 18.9375 20.394531 19.199219 20.367188 19.472656 20.46875 C 19.597656 20.507812 19.710938 20.5625 19.816406 20.636719 C 19.429688 20.789062 18.863281 20.878906 18.457031 20.683594 C 18.59375 20.601562 18.636719 20.574219 18.6875 20.546875 Z M 18.6875 20.546875 " fill-opacity="1" fill-rule="nonzero"/></g><g clip-path="url(#0c4fbfd5da)"><path fill="#000000" d="M 17.964844 20.75 L 17.855469 20.683594 L 17.765625 20.632812 C 16.542969 19.898438 14.898438 19.21875 14.234375 18.675781 C 14.730469 19.113281 15.046875 19.226562 16.492188 20.039062 C 16.765625 20.195312 17.40625 20.570312 17.703125 20.761719 L 17.820312 20.835938 C 17.195312 21.21875 17.097656 21.332031 16.878906 21.769531 C 17.226562 21.472656 17.585938 21.195312 17.960938 20.933594 C 18.335938 21.195312 18.699219 21.472656 19.042969 21.769531 C 18.828125 21.332031 18.730469 21.21875 18.105469 20.835938 C 18.144531 20.8125 18.183594 20.785156 18.222656 20.761719 C 18.515625 20.570312 19.160156 20.191406 19.433594 20.039062 C 20.875 19.226562 21.195312 19.113281 21.691406 18.675781 C 21.027344 19.222656 19.382812 19.898438 18.160156 20.632812 L 18.070312 20.683594 Z M 17.964844 20.75 " fill-opacity="1" fill-rule="nonzero"/></g><g clip-path="url(#935a957d3b)"><g clip-path="url(#c87532da8a)"><path fill="#ffffff" d="M 14.53125 12.019531 L 21.460938 12.019531 L 21.460938 18.949219 L 14.53125 18.949219 Z M 14.53125 12.019531 " fill-opacity="1" fill-rule="nonzero"/></g></g><g clip-path="url(#5e3523b8ef)"><path fill="#ffffff" d="M 10.863281 15.335938 L 14.886719 15.335938 L 14.886719 16.722656 L 10.863281 16.722656 Z M 10.863281 15.335938 " fill-opacity="1" fill-rule="nonzero"/></g><g clip-path="url(#c75496ce8d)"><path fill="#ffffff" d="M 21.113281 15.191406 L 25.132812 15.191406 L 25.132812 16.574219 L 21.113281 16.574219 Z M 21.113281 15.191406 " fill-opacity="1" fill-rule="nonzero"/></g><g fill="#000000" fill-opacity="1"><g transform="translate(7.921163, 23.446154)"><g><path d="M 0.140625 0 L 0.140625 -1.484375 L 0.734375 -1.484375 C 0.890625 -1.484375 1.007812 -1.445312 1.09375 -1.375 C 1.175781 -1.300781 1.21875 -1.210938 1.21875 -1.109375 C 1.21875 -1.015625 1.191406 -0.9375 1.140625 -0.875 C 1.085938 -0.820312 1.023438 -0.785156 0.953125 -0.765625 C 1.035156 -0.742188 1.101562 -0.703125 1.15625 -0.640625 C 1.21875 -0.578125 1.25 -0.5 1.25 -0.40625 C 1.25 -0.289062 1.207031 -0.191406 1.125 -0.109375 C 1.039062 -0.0351562 0.921875 0 0.765625 0 Z M 0.421875 -0.859375 L 0.703125 -0.859375 C 0.773438 -0.859375 0.832031 -0.875 0.875 -0.90625 C 0.914062 -0.945312 0.9375 -1 0.9375 -1.0625 C 0.9375 -1.125 0.914062 -1.171875 0.875 -1.203125 C 0.832031 -1.242188 0.773438 -1.265625 0.703125 -1.265625 L 0.421875 -1.265625 Z M 0.421875 -0.21875 L 0.71875 -0.21875 C 0.800781 -0.21875 0.863281 -0.234375 0.90625 -0.265625 C 0.945312 -0.304688 0.96875 -0.363281 0.96875 -0.4375 C 0.96875 -0.507812 0.941406 -0.5625 0.890625 -0.59375 C 0.847656 -0.632812 0.789062 -0.65625 0.71875 -0.65625 L 0.421875 -0.65625 Z M 0.421875 -0.21875 "/></g></g></g><g fill="#000000" fill-opacity="1"><g transform="translate(9.321484, 23.446154)"><g><path d="M 0.140625 0 L 0.140625 -1.484375 L 0.6875 -1.484375 C 0.8125 -1.484375 0.910156 -1.460938 0.984375 -1.421875 C 1.054688 -1.378906 1.113281 -1.320312 1.15625 -1.25 C 1.195312 -1.1875 1.21875 -1.113281 1.21875 -1.03125 C 1.21875 -0.945312 1.191406 -0.863281 1.140625 -0.78125 C 1.097656 -0.707031 1.023438 -0.65625 0.921875 -0.625 L 1.234375 0 L 0.921875 0 L 0.640625 -0.59375 L 0.421875 -0.59375 L 0.421875 0 Z M 0.421875 -0.78125 L 0.671875 -0.78125 C 0.765625 -0.78125 0.832031 -0.800781 0.875 -0.84375 C 0.914062 -0.894531 0.9375 -0.957031 0.9375 -1.03125 C 0.9375 -1.09375 0.914062 -1.144531 0.875 -1.1875 C 0.832031 -1.238281 0.765625 -1.265625 0.671875 -1.265625 L 0.421875 -1.265625 Z M 0.421875 -0.78125 "/></g></g></g><g fill="#000000" fill-opacity="1"><g transform="translate(10.704754, 23.446154)"><g><path d="M 0.71875 0.03125 C 0.601562 0.03125 0.503906 0.0078125 0.421875 -0.03125 C 0.335938 -0.0820312 0.269531 -0.148438 0.21875 -0.234375 C 0.164062 -0.328125 0.140625 -0.4375 0.140625 -0.5625 L 0.140625 -1.484375 L 0.40625 -1.484375 L 0.40625 -0.5625 C 0.40625 -0.445312 0.429688 -0.359375 0.484375 -0.296875 C 0.546875 -0.242188 0.625 -0.21875 0.71875 -0.21875 C 0.820312 -0.21875 0.898438 -0.242188 0.953125 -0.296875 C 1.015625 -0.359375 1.046875 -0.445312 1.046875 -0.5625 L 1.046875 -1.484375 L 1.3125 -1.484375 L 1.3125 -0.5625 C 1.3125 -0.4375 1.285156 -0.328125 1.234375 -0.234375 C 1.179688 -0.148438 1.109375 -0.0820312 1.015625 -0.03125 C 0.921875 0.0078125 0.820312 0.03125 0.71875 0.03125 Z M 0.71875 0.03125 "/></g></g></g><g fill="#000000" fill-opacity="1"><g transform="translate(12.211644, 23.446154)"><g><path d="M 0.140625 0 L 0.140625 -1.484375 L 0.421875 -1.484375 L 1.109375 -0.4375 L 1.109375 -1.484375 L 1.390625 -1.484375 L 1.390625 0 L 1.109375 0 L 0.421875 -1.046875 L 0.421875 0 Z M 0.140625 0 "/></g></g></g><g fill="#000000" fill-opacity="1"><g transform="translate(13.803788, 23.446154)"><g><path d="M 0.84375 0.03125 C 0.695312 0.03125 0.566406 0 0.453125 -0.0625 C 0.335938 -0.132812 0.25 -0.226562 0.1875 -0.34375 C 0.125 -0.457031 0.09375 -0.59375 0.09375 -0.75 C 0.09375 -0.894531 0.125 -1.023438 0.1875 -1.140625 C 0.25 -1.253906 0.335938 -1.34375 0.453125 -1.40625 C 0.566406 -1.476562 0.695312 -1.515625 0.84375 -1.515625 C 0.988281 -1.515625 1.113281 -1.476562 1.21875 -1.40625 C 1.332031 -1.34375 1.421875 -1.253906 1.484375 -1.140625 C 1.546875 -1.023438 1.578125 -0.894531 1.578125 -0.75 C 1.578125 -0.59375 1.546875 -0.457031 1.484375 -0.34375 C 1.421875 -0.226562 1.332031 -0.132812 1.21875 -0.0625 C 1.113281 0 0.988281 0.03125 0.84375 0.03125 Z M 0.84375 -0.21875 C 0.976562 -0.21875 1.085938 -0.265625 1.171875 -0.359375 C 1.265625 -0.453125 1.3125 -0.582031 1.3125 -0.75 C 1.3125 -0.90625 1.265625 -1.03125 1.171875 -1.125 C 1.085938 -1.21875 0.976562 -1.265625 0.84375 -1.265625 C 0.695312 -1.265625 0.582031 -1.21875 0.5 -1.125 C 0.414062 -1.03125 0.375 -0.90625 0.375 -0.75 C 0.375 -0.582031 0.414062 -0.453125 0.5 -0.359375 C 0.582031 -0.265625 0.695312 -0.21875 0.84375 -0.21875 Z M 0.84375 -0.21875 "/></g></g></g><g fill="#000000" fill-opacity="1"><g transform="translate(15.545128, 23.446154)"><g/></g></g><g fill="#000000" fill-opacity="1"><g transform="translate(16.107821, 23.446154)"><g><path d="M 0.046875 0 L 0.59375 -1.484375 L 0.90625 -1.484375 L 1.4375 0 L 1.15625 0 L 1.03125 -0.34375 L 0.453125 -0.34375 L 0.328125 0 Z M 0.53125 -0.5625 L 0.953125 -0.5625 L 0.75 -1.171875 Z M 0.53125 -0.5625 "/></g></g></g><g fill="#000000" fill-opacity="1"><g transform="translate(17.657337, 23.446154)"><g><path d="M 0.140625 0 L 0.140625 -1.484375 L 0.421875 -1.484375 L 1.109375 -0.4375 L 1.109375 -1.484375 L 1.390625 -1.484375 L 1.390625 0 L 1.109375 0 L 0.421875 -1.046875 L 0.421875 0 Z M 0.140625 0 "/></g></g></g><g fill="#000000" fill-opacity="1"><g transform="translate(19.249482, 23.446154)"><g><path d="M 0.046875 0 L 0.59375 -1.484375 L 0.90625 -1.484375 L 1.4375 0 L 1.15625 0 L 1.03125 -0.34375 L 0.453125 -0.34375 L 0.328125 0 Z M 0.53125 -0.5625 L 0.953125 -0.5625 L 0.75 -1.171875 Z M 0.53125 -0.5625 "/></g></g></g><g fill="#000000" fill-opacity="1"><g transform="translate(20.798999, 23.446154)"><g><path d="M 0.65625 0.03125 C 0.539062 0.03125 0.441406 0.0078125 0.359375 -0.03125 C 0.273438 -0.0703125 0.207031 -0.125 0.15625 -0.1875 C 0.113281 -0.257812 0.09375 -0.347656 0.09375 -0.453125 L 0.375 -0.453125 C 0.375 -0.378906 0.398438 -0.316406 0.453125 -0.265625 C 0.503906 -0.222656 0.570312 -0.203125 0.65625 -0.203125 C 0.726562 -0.203125 0.785156 -0.21875 0.828125 -0.25 C 0.867188 -0.289062 0.890625 -0.335938 0.890625 -0.390625 C 0.890625 -0.453125 0.867188 -0.5 0.828125 -0.53125 C 0.796875 -0.570312 0.75 -0.601562 0.6875 -0.625 C 0.625 -0.644531 0.554688 -0.664062 0.484375 -0.6875 C 0.367188 -0.726562 0.28125 -0.78125 0.21875 -0.84375 C 0.15625 -0.90625 0.125 -0.988281 0.125 -1.09375 C 0.125 -1.175781 0.144531 -1.25 0.1875 -1.3125 C 0.226562 -1.375 0.285156 -1.421875 0.359375 -1.453125 C 0.441406 -1.492188 0.53125 -1.515625 0.625 -1.515625 C 0.726562 -1.515625 0.816406 -1.492188 0.890625 -1.453125 C 0.960938 -1.421875 1.019531 -1.375 1.0625 -1.3125 C 1.101562 -1.25 1.128906 -1.171875 1.140625 -1.078125 L 0.84375 -1.078125 C 0.84375 -1.128906 0.820312 -1.175781 0.78125 -1.21875 C 0.75 -1.257812 0.695312 -1.28125 0.625 -1.28125 C 0.5625 -1.28125 0.507812 -1.265625 0.46875 -1.234375 C 0.425781 -1.203125 0.40625 -1.160156 0.40625 -1.109375 C 0.40625 -1.054688 0.421875 -1.015625 0.453125 -0.984375 C 0.484375 -0.960938 0.523438 -0.941406 0.578125 -0.921875 C 0.640625 -0.898438 0.703125 -0.878906 0.765625 -0.859375 C 0.835938 -0.828125 0.90625 -0.796875 0.96875 -0.765625 C 1.03125 -0.734375 1.078125 -0.6875 1.109375 -0.625 C 1.148438 -0.570312 1.171875 -0.5 1.171875 -0.40625 C 1.171875 -0.332031 1.148438 -0.257812 1.109375 -0.1875 C 1.078125 -0.125 1.019531 -0.0703125 0.9375 -0.03125 C 0.863281 0.0078125 0.769531 0.03125 0.65625 0.03125 Z M 0.65625 0.03125 "/></g></g></g><g fill="#000000" fill-opacity="1"><g transform="translate(22.126852, 23.446154)"><g><path d="M 0.484375 0 L 0.484375 -1.265625 L 0.0625 -1.265625 L 0.0625 -1.484375 L 1.203125 -1.484375 L 1.203125 -1.265625 L 0.765625 -1.265625 L 0.765625 0 Z M 0.484375 0 "/></g></g></g><g fill="#000000" fill-opacity="1"><g transform="translate(23.441919, 23.446154)"><g><path d="M 0.046875 0 L 0.59375 -1.484375 L 0.90625 -1.484375 L 1.4375 0 L 1.15625 0 L 1.03125 -0.34375 L 0.453125 -0.34375 L 0.328125 0 Z M 0.53125 -0.5625 L 0.953125 -0.5625 L 0.75 -1.171875 Z M 0.53125 -0.5625 "/></g></g></g><g fill="#000000" fill-opacity="1"><g transform="translate(24.991436, 23.446154)"><g><path d="M 0.09375 0 L 0.09375 -0.203125 L 0.78125 -1.265625 L 0.109375 -1.265625 L 0.109375 -1.484375 L 1.09375 -1.484375 L 1.09375 -1.28125 L 0.40625 -0.234375 L 1.109375 -0.234375 L 1.109375 0 Z M 0.09375 0 "/></g></g></g><g fill="#000000" fill-opacity="1"><g transform="translate(26.253217, 23.446154)"><g><path d="M 0.09375 0 L 0.09375 -0.203125 L 0.78125 -1.265625 L 0.109375 -1.265625 L 0.109375 -1.484375 L 1.09375 -1.484375 L 1.09375 -1.28125 L 0.40625 -0.234375 L 1.109375 -0.234375 L 1.109375 0 Z M 0.09375 0 "/></g></g></g><g fill="#000000" fill-opacity="1"><g transform="translate(27.514999, 23.446154)"><g><path d="M 0.140625 0 L 0.140625 -1.484375 L 0.421875 -1.484375 L 0.421875 0 Z M 0.140625 0 "/></g></g></g><g fill="#000000" fill-opacity="1"><g transform="translate(12.935125, 24.752699)"><g><path d="M 0.046875 0 L 0.046875 -0.59375 L 0.296875 -0.59375 C 0.347656 -0.59375 0.390625 -0.578125 0.421875 -0.546875 C 0.460938 -0.515625 0.484375 -0.476562 0.484375 -0.4375 C 0.484375 -0.394531 0.472656 -0.363281 0.453125 -0.34375 C 0.429688 -0.320312 0.40625 -0.304688 0.375 -0.296875 C 0.414062 -0.296875 0.445312 -0.28125 0.46875 -0.25 C 0.488281 -0.21875 0.5 -0.1875 0.5 -0.15625 C 0.5 -0.113281 0.476562 -0.078125 0.4375 -0.046875 C 0.40625 -0.015625 0.359375 0 0.296875 0 Z M 0.171875 -0.34375 L 0.28125 -0.34375 C 0.3125 -0.34375 0.332031 -0.347656 0.34375 -0.359375 C 0.363281 -0.367188 0.375 -0.390625 0.375 -0.421875 C 0.375 -0.453125 0.363281 -0.472656 0.34375 -0.484375 C 0.332031 -0.492188 0.3125 -0.5 0.28125 -0.5 L 0.171875 -0.5 Z M 0.171875 -0.09375 L 0.296875 -0.09375 C 0.316406 -0.09375 0.332031 -0.0976562 0.34375 -0.109375 C 0.363281 -0.117188 0.375 -0.140625 0.375 -0.171875 C 0.375 -0.191406 0.363281 -0.210938 0.34375 -0.234375 C 0.332031 -0.253906 0.316406 -0.265625 0.296875 -0.265625 L 0.171875 -0.265625 Z M 0.171875 -0.09375 "/></g></g></g><g fill="#000000" fill-opacity="1"><g transform="translate(13.912873, 24.752699)"><g><path d="M 0.015625 0 L 0.234375 -0.59375 L 0.359375 -0.59375 L 0.5625 0 L 0.46875 0 L 0.40625 -0.125 L 0.1875 -0.125 L 0.125 0 Z M 0.203125 -0.21875 L 0.375 -0.21875 L 0.296875 -0.46875 Z M 0.203125 -0.21875 "/></g></g></g><g fill="#000000" fill-opacity="1"><g transform="translate(14.949652, 24.752699)"><g><path d="M 0.046875 0 L 0.046875 -0.59375 L 0.28125 -0.59375 C 0.320312 -0.59375 0.359375 -0.582031 0.390625 -0.5625 C 0.421875 -0.550781 0.441406 -0.53125 0.453125 -0.5 C 0.472656 -0.476562 0.484375 -0.445312 0.484375 -0.40625 C 0.484375 -0.375 0.472656 -0.34375 0.453125 -0.3125 C 0.429688 -0.28125 0.40625 -0.257812 0.375 -0.25 L 0.484375 0 L 0.375 0 L 0.25 -0.234375 L 0.171875 -0.234375 L 0.171875 0 Z M 0.171875 -0.3125 L 0.265625 -0.3125 C 0.296875 -0.3125 0.320312 -0.320312 0.34375 -0.34375 C 0.363281 -0.363281 0.375 -0.382812 0.375 -0.40625 C 0.375 -0.4375 0.363281 -0.457031 0.34375 -0.46875 C 0.320312 -0.488281 0.296875 -0.5 0.265625 -0.5 L 0.171875 -0.5 Z M 0.171875 -0.3125 "/></g></g></g><g fill="#000000" fill-opacity="1"><g transform="translate(15.920654, 24.752699)"><g><path d="M 0.046875 0 L 0.046875 -0.59375 L 0.296875 -0.59375 C 0.347656 -0.59375 0.390625 -0.578125 0.421875 -0.546875 C 0.460938 -0.515625 0.484375 -0.476562 0.484375 -0.4375 C 0.484375 -0.394531 0.472656 -0.363281 0.453125 -0.34375 C 0.429688 -0.320312 0.40625 -0.304688 0.375 -0.296875 C 0.414062 -0.296875 0.445312 -0.28125 0.46875 -0.25 C 0.488281 -0.21875 0.5 -0.1875 0.5 -0.15625 C 0.5 -0.113281 0.476562 -0.078125 0.4375 -0.046875 C 0.40625 -0.015625 0.359375 0 0.296875 0 Z M 0.171875 -0.34375 L 0.28125 -0.34375 C 0.3125 -0.34375 0.332031 -0.347656 0.34375 -0.359375 C 0.363281 -0.367188 0.375 -0.390625 0.375 -0.421875 C 0.375 -0.453125 0.363281 -0.472656 0.34375 -0.484375 C 0.332031 -0.492188 0.3125 -0.5 0.28125 -0.5 L 0.171875 -0.5 Z M 0.171875 -0.09375 L 0.296875 -0.09375 C 0.316406 -0.09375 0.332031 -0.0976562 0.34375 -0.109375 C 0.363281 -0.117188 0.375 -0.140625 0.375 -0.171875 C 0.375 -0.191406 0.363281 -0.210938 0.34375 -0.234375 C 0.332031 -0.253906 0.316406 -0.265625 0.296875 -0.265625 L 0.171875 -0.265625 Z M 0.171875 -0.09375 "/></g></g></g><g fill="#000000" fill-opacity="1"><g transform="translate(16.898402, 24.752699)"><g><path d="M 0.046875 0 L 0.046875 -0.59375 L 0.453125 -0.59375 L 0.453125 -0.5 L 0.171875 -0.5 L 0.171875 -0.34375 L 0.421875 -0.34375 L 0.421875 -0.265625 L 0.171875 -0.265625 L 0.171875 -0.09375 L 0.453125 -0.09375 L 0.453125 0 Z M 0.046875 0 "/></g></g></g><g fill="#000000" fill-opacity="1"><g transform="translate(17.831454, 24.752699)"><g><path d="M 0.046875 0 L 0.046875 -0.59375 L 0.28125 -0.59375 C 0.320312 -0.59375 0.359375 -0.582031 0.390625 -0.5625 C 0.421875 -0.550781 0.441406 -0.53125 0.453125 -0.5 C 0.472656 -0.476562 0.484375 -0.445312 0.484375 -0.40625 C 0.484375 -0.375 0.472656 -0.34375 0.453125 -0.3125 C 0.429688 -0.28125 0.40625 -0.257812 0.375 -0.25 L 0.484375 0 L 0.375 0 L 0.25 -0.234375 L 0.171875 -0.234375 L 0.171875 0 Z M 0.171875 -0.3125 L 0.265625 -0.3125 C 0.296875 -0.3125 0.320312 -0.320312 0.34375 -0.34375 C 0.363281 -0.363281 0.375 -0.382812 0.375 -0.40625 C 0.375 -0.4375 0.363281 -0.457031 0.34375 -0.46875 C 0.320312 -0.488281 0.296875 -0.5 0.265625 -0.5 L 0.171875 -0.5 Z M 0.171875 -0.3125 "/></g></g></g><g fill="#000000" fill-opacity="1"><g transform="translate(18.802455, 24.752699)"><g/></g></g><g fill="#000000" fill-opacity="1"><g transform="translate(19.448784, 24.752699)"><g><path d="M 0.265625 0.015625 C 0.222656 0.015625 0.179688 0.00390625 0.140625 -0.015625 C 0.109375 -0.0351562 0.0820312 -0.0546875 0.0625 -0.078125 C 0.0507812 -0.109375 0.046875 -0.144531 0.046875 -0.1875 L 0.140625 -0.1875 C 0.148438 -0.144531 0.160156 -0.113281 0.171875 -0.09375 C 0.191406 -0.0820312 0.222656 -0.078125 0.265625 -0.078125 C 0.285156 -0.078125 0.304688 -0.0820312 0.328125 -0.09375 C 0.347656 -0.113281 0.359375 -0.132812 0.359375 -0.15625 C 0.359375 -0.1875 0.347656 -0.207031 0.328125 -0.21875 C 0.304688 -0.226562 0.285156 -0.238281 0.265625 -0.25 C 0.242188 -0.257812 0.21875 -0.269531 0.1875 -0.28125 C 0.144531 -0.289062 0.109375 -0.304688 0.078125 -0.328125 C 0.0546875 -0.359375 0.046875 -0.394531 0.046875 -0.4375 C 0.046875 -0.46875 0.0546875 -0.492188 0.078125 -0.515625 C 0.0976562 -0.535156 0.117188 -0.554688 0.140625 -0.578125 C 0.171875 -0.597656 0.207031 -0.609375 0.25 -0.609375 C 0.28125 -0.609375 0.3125 -0.597656 0.34375 -0.578125 C 0.375 -0.554688 0.398438 -0.535156 0.421875 -0.515625 C 0.441406 -0.492188 0.453125 -0.46875 0.453125 -0.4375 L 0.328125 -0.4375 C 0.328125 -0.457031 0.320312 -0.472656 0.3125 -0.484375 C 0.300781 -0.503906 0.28125 -0.515625 0.25 -0.515625 C 0.21875 -0.515625 0.191406 -0.503906 0.171875 -0.484375 C 0.160156 -0.472656 0.15625 -0.457031 0.15625 -0.4375 C 0.15625 -0.414062 0.160156 -0.398438 0.171875 -0.390625 C 0.191406 -0.378906 0.210938 -0.367188 0.234375 -0.359375 C 0.253906 -0.359375 0.273438 -0.351562 0.296875 -0.34375 C 0.335938 -0.332031 0.367188 -0.316406 0.390625 -0.296875 C 0.410156 -0.285156 0.425781 -0.265625 0.4375 -0.234375 C 0.457031 -0.210938 0.46875 -0.1875 0.46875 -0.15625 C 0.46875 -0.132812 0.457031 -0.109375 0.4375 -0.078125 C 0.425781 -0.0546875 0.40625 -0.0351562 0.375 -0.015625 C 0.34375 0.00390625 0.304688 0.015625 0.265625 0.015625 Z M 0.265625 0.015625 "/></g></g></g><g fill="#000000" fill-opacity="1"><g transform="translate(20.397859, 24.752699)"><g><path d="M 0.046875 0 L 0.046875 -0.59375 L 0.171875 -0.59375 L 0.171875 -0.34375 L 0.4375 -0.34375 L 0.4375 -0.59375 L 0.546875 -0.59375 L 0.546875 0 L 0.4375 0 L 0.4375 -0.265625 L 0.171875 -0.265625 L 0.171875 0 Z M 0.046875 0 "/></g></g></g><g fill="#000000" fill-opacity="1"><g transform="translate(21.438855, 24.752699)"><g><path d="M 0.328125 0.015625 C 0.273438 0.015625 0.226562 0.00390625 0.1875 -0.015625 C 0.144531 -0.046875 0.109375 -0.0820312 0.078125 -0.125 C 0.0546875 -0.175781 0.046875 -0.234375 0.046875 -0.296875 C 0.046875 -0.347656 0.0546875 -0.398438 0.078125 -0.453125 C 0.109375 -0.503906 0.144531 -0.539062 0.1875 -0.5625 C 0.226562 -0.59375 0.273438 -0.609375 0.328125 -0.609375 C 0.390625 -0.609375 0.441406 -0.59375 0.484375 -0.5625 C 0.523438 -0.539062 0.554688 -0.503906 0.578125 -0.453125 C 0.609375 -0.398438 0.625 -0.347656 0.625 -0.296875 C 0.625 -0.234375 0.609375 -0.175781 0.578125 -0.125 C 0.554688 -0.0820312 0.523438 -0.046875 0.484375 -0.015625 C 0.441406 0.00390625 0.390625 0.015625 0.328125 0.015625 Z M 0.328125 -0.09375 C 0.390625 -0.09375 0.4375 -0.109375 0.46875 -0.140625 C 0.5 -0.179688 0.515625 -0.234375 0.515625 -0.296875 C 0.515625 -0.359375 0.5 -0.40625 0.46875 -0.4375 C 0.4375 -0.476562 0.390625 -0.5 0.328125 -0.5 C 0.273438 -0.5 0.226562 -0.476562 0.1875 -0.4375 C 0.15625 -0.40625 0.140625 -0.359375 0.140625 -0.296875 C 0.140625 -0.234375 0.15625 -0.179688 0.1875 -0.140625 C 0.226562 -0.109375 0.273438 -0.09375 0.328125 -0.09375 Z M 0.328125 -0.09375 "/></g></g></g><g fill="#000000" fill-opacity="1"><g transform="translate(22.551532, 24.752699)"><g><path d="M 0.046875 0 L 0.046875 -0.59375 L 0.28125 -0.59375 C 0.320312 -0.59375 0.359375 -0.582031 0.390625 -0.5625 C 0.421875 -0.550781 0.441406 -0.53125 0.453125 -0.5 C 0.472656 -0.476562 0.484375 -0.445312 0.484375 -0.40625 C 0.484375 -0.375 0.472656 -0.34375 0.453125 -0.3125 C 0.441406 -0.289062 0.421875 -0.269531 0.390625 -0.25 C 0.359375 -0.226562 0.320312 -0.21875 0.28125 -0.21875 L 0.171875 -0.21875 L 0.171875 0 Z M 0.171875 -0.3125 L 0.265625 -0.3125 C 0.304688 -0.3125 0.332031 -0.320312 0.34375 -0.34375 C 0.363281 -0.363281 0.375 -0.382812 0.375 -0.40625 C 0.375 -0.4375 0.363281 -0.457031 0.34375 -0.46875 C 0.332031 -0.488281 0.304688 -0.5 0.265625 -0.5 L 0.171875 -0.5 Z M 0.171875 -0.3125 "/></g></g></g><g fill="#000000" fill-opacity="1"><g transform="translate(11.515447, 16.324156)"><g><path d="M 0.046875 0 L 0.046875 -0.5625 L 0.4375 -0.5625 L 0.4375 -0.484375 L 0.171875 -0.484375 L 0.171875 -0.328125 L 0.40625 -0.328125 L 0.40625 -0.25 L 0.171875 -0.25 L 0.171875 -0.09375 L 0.4375 -0.09375 L 0.4375 0 Z M 0.046875 0 "/></g></g></g><g fill="#000000" fill-opacity="1"><g transform="translate(12.221741, 16.324156)"><g><path d="M 0.25 0.015625 C 0.207031 0.015625 0.171875 0.0078125 0.140625 0 C 0.109375 -0.0195312 0.0820312 -0.0390625 0.0625 -0.0625 C 0.0390625 -0.09375 0.03125 -0.128906 0.03125 -0.171875 L 0.140625 -0.171875 C 0.148438 -0.140625 0.160156 -0.113281 0.171875 -0.09375 C 0.191406 -0.0820312 0.21875 -0.078125 0.25 -0.078125 C 0.28125 -0.078125 0.300781 -0.0820312 0.3125 -0.09375 C 0.332031 -0.101562 0.34375 -0.125 0.34375 -0.15625 C 0.34375 -0.175781 0.332031 -0.191406 0.3125 -0.203125 C 0.300781 -0.222656 0.285156 -0.234375 0.265625 -0.234375 C 0.242188 -0.242188 0.210938 -0.253906 0.171875 -0.265625 C 0.128906 -0.273438 0.0976562 -0.289062 0.078125 -0.3125 C 0.0546875 -0.34375 0.046875 -0.378906 0.046875 -0.421875 C 0.046875 -0.453125 0.0507812 -0.476562 0.0625 -0.5 C 0.0820312 -0.519531 0.101562 -0.535156 0.125 -0.546875 C 0.15625 -0.566406 0.191406 -0.578125 0.234375 -0.578125 C 0.273438 -0.578125 0.304688 -0.566406 0.328125 -0.546875 C 0.359375 -0.535156 0.382812 -0.519531 0.40625 -0.5 C 0.425781 -0.476562 0.4375 -0.453125 0.4375 -0.421875 L 0.3125 -0.421875 C 0.3125 -0.429688 0.304688 -0.445312 0.296875 -0.46875 C 0.285156 -0.488281 0.265625 -0.5 0.234375 -0.5 C 0.210938 -0.5 0.191406 -0.488281 0.171875 -0.46875 C 0.160156 -0.457031 0.15625 -0.441406 0.15625 -0.421875 C 0.15625 -0.398438 0.160156 -0.382812 0.171875 -0.375 C 0.179688 -0.363281 0.195312 -0.351562 0.21875 -0.34375 C 0.238281 -0.34375 0.265625 -0.335938 0.296875 -0.328125 C 0.328125 -0.316406 0.351562 -0.300781 0.375 -0.28125 C 0.394531 -0.269531 0.410156 -0.253906 0.421875 -0.234375 C 0.429688 -0.210938 0.4375 -0.1875 0.4375 -0.15625 C 0.4375 -0.125 0.429688 -0.09375 0.421875 -0.0625 C 0.410156 -0.0390625 0.390625 -0.0195312 0.359375 0 C 0.328125 0.0078125 0.289062 0.015625 0.25 0.015625 Z M 0.25 0.015625 "/></g></g></g><g fill="#000000" fill-opacity="1"><g transform="translate(12.94342, 16.324156)"><g><path d="M 0.1875 0 L 0.1875 -0.484375 L 0.03125 -0.484375 L 0.03125 -0.5625 L 0.453125 -0.5625 L 0.453125 -0.484375 L 0.296875 -0.484375 L 0.296875 0 Z M 0.1875 0 "/></g></g></g><g fill="#000000" fill-opacity="1"><g transform="translate(13.66024, 16.324156)"><g><path d="M 0.046875 0 L 0.046875 -0.5625 L 0.25 -0.5625 C 0.320312 -0.5625 0.378906 -0.550781 0.421875 -0.53125 C 0.460938 -0.507812 0.492188 -0.472656 0.515625 -0.421875 C 0.535156 -0.378906 0.546875 -0.332031 0.546875 -0.28125 C 0.546875 -0.226562 0.535156 -0.179688 0.515625 -0.140625 C 0.492188 -0.0976562 0.460938 -0.0625 0.421875 -0.03125 C 0.378906 -0.0078125 0.320312 0 0.25 0 Z M 0.171875 -0.09375 L 0.234375 -0.09375 C 0.285156 -0.09375 0.320312 -0.0976562 0.34375 -0.109375 C 0.375 -0.128906 0.394531 -0.15625 0.40625 -0.1875 C 0.425781 -0.21875 0.4375 -0.25 0.4375 -0.28125 C 0.4375 -0.320312 0.425781 -0.359375 0.40625 -0.390625 C 0.394531 -0.421875 0.375 -0.441406 0.34375 -0.453125 C 0.320312 -0.472656 0.285156 -0.484375 0.234375 -0.484375 L 0.171875 -0.484375 Z M 0.171875 -0.09375 "/></g></g></g><g fill="#000000" fill-opacity="1"><g transform="translate(21.553404, 16.205385)"><g><path d="M 0.046875 0 L 0.046875 -0.09375 C 0.0859375 -0.113281 0.125 -0.140625 0.15625 -0.171875 C 0.195312 -0.210938 0.234375 -0.25 0.265625 -0.28125 C 0.296875 -0.3125 0.316406 -0.34375 0.328125 -0.375 C 0.347656 -0.40625 0.359375 -0.4375 0.359375 -0.46875 C 0.359375 -0.488281 0.347656 -0.507812 0.328125 -0.53125 C 0.316406 -0.550781 0.296875 -0.5625 0.265625 -0.5625 C 0.234375 -0.5625 0.207031 -0.550781 0.1875 -0.53125 C 0.164062 -0.507812 0.15625 -0.484375 0.15625 -0.453125 L 0.046875 -0.453125 C 0.046875 -0.492188 0.0546875 -0.53125 0.078125 -0.5625 C 0.0976562 -0.59375 0.125 -0.617188 0.15625 -0.640625 C 0.1875 -0.660156 0.226562 -0.671875 0.28125 -0.671875 C 0.332031 -0.671875 0.378906 -0.648438 0.421875 -0.609375 C 0.460938 -0.566406 0.484375 -0.519531 0.484375 -0.46875 C 0.484375 -0.425781 0.472656 -0.390625 0.453125 -0.359375 C 0.441406 -0.328125 0.421875 -0.296875 0.390625 -0.265625 C 0.359375 -0.234375 0.328125 -0.203125 0.296875 -0.171875 C 0.273438 -0.140625 0.25 -0.117188 0.21875 -0.109375 L 0.5 -0.109375 L 0.5 0 Z M 0.046875 0 "/></g></g></g><g fill="#000000" fill-opacity="1"><g transform="translate(22.358206, 16.205385)"><g><path d="M 0.328125 0.015625 C 0.273438 0.015625 0.222656 0 0.171875 -0.03125 C 0.128906 -0.0625 0.0976562 -0.0976562 0.078125 -0.140625 C 0.0546875 -0.191406 0.046875 -0.25 0.046875 -0.3125 C 0.046875 -0.382812 0.0546875 -0.445312 0.078125 -0.5 C 0.0976562 -0.550781 0.128906 -0.59375 0.171875 -0.625 C 0.222656 -0.65625 0.273438 -0.671875 0.328125 -0.671875 C 0.390625 -0.671875 0.441406 -0.65625 0.484375 -0.625 C 0.523438 -0.59375 0.554688 -0.550781 0.578125 -0.5 C 0.609375 -0.445312 0.625 -0.382812 0.625 -0.3125 C 0.625 -0.25 0.609375 -0.191406 0.578125 -0.140625 C 0.554688 -0.0976562 0.523438 -0.0625 0.484375 -0.03125 C 0.441406 0 0.390625 0.015625 0.328125 0.015625 Z M 0.328125 -0.109375 C 0.378906 -0.109375 0.421875 -0.125 0.453125 -0.15625 C 0.484375 -0.195312 0.5 -0.25 0.5 -0.3125 C 0.5 -0.394531 0.484375 -0.453125 0.453125 -0.484375 C 0.421875 -0.523438 0.378906 -0.546875 0.328125 -0.546875 C 0.285156 -0.546875 0.242188 -0.523438 0.203125 -0.484375 C 0.171875 -0.453125 0.15625 -0.394531 0.15625 -0.3125 C 0.15625 -0.25 0.171875 -0.195312 0.203125 -0.15625 C 0.242188 -0.125 0.285156 -0.109375 0.328125 -0.109375 Z M 0.328125 -0.109375 "/></g></g></g><g fill="#000000" fill-opacity="1"><g transform="translate(23.292308, 16.205385)"><g><path d="M 0.046875 0 L 0.046875 -0.09375 C 0.0859375 -0.113281 0.125 -0.140625 0.15625 -0.171875 C 0.195312 -0.210938 0.234375 -0.25 0.265625 -0.28125 C 0.296875 -0.3125 0.316406 -0.34375 0.328125 -0.375 C 0.347656 -0.40625 0.359375 -0.4375 0.359375 -0.46875 C 0.359375 -0.488281 0.347656 -0.507812 0.328125 -0.53125 C 0.316406 -0.550781 0.296875 -0.5625 0.265625 -0.5625 C 0.234375 -0.5625 0.207031 -0.550781 0.1875 -0.53125 C 0.164062 -0.507812 0.15625 -0.484375 0.15625 -0.453125 L 0.046875 -0.453125 C 0.046875 -0.492188 0.0546875 -0.53125 0.078125 -0.5625 C 0.0976562 -0.59375 0.125 -0.617188 0.15625 -0.640625 C 0.1875 -0.660156 0.226562 -0.671875 0.28125 -0.671875 C 0.332031 -0.671875 0.378906 -0.648438 0.421875 -0.609375 C 0.460938 -0.566406 0.484375 -0.519531 0.484375 -0.46875 C 0.484375 -0.425781 0.472656 -0.390625 0.453125 -0.359375 C 0.441406 -0.328125 0.421875 -0.296875 0.390625 -0.265625 C 0.359375 -0.234375 0.328125 -0.203125 0.296875 -0.171875 C 0.273438 -0.140625 0.25 -0.117188 0.21875 -0.109375 L 0.5 -0.109375 L 0.5 0 Z M 0.046875 0 "/></g></g></g><g fill="#000000" fill-opacity="1"><g transform="translate(24.09711, 16.205385)"><g><path d="M 0.359375 0 L 0.359375 -0.109375 L 0.046875 -0.109375 L 0.046875 -0.21875 L 0.34375 -0.65625 L 0.484375 -0.65625 L 0.484375 -0.21875 L 0.5625 -0.21875 L 0.5625 -0.109375 L 0.484375 -0.109375 L 0.484375 0 Z M 0.171875 -0.21875 L 0.359375 -0.21875 L 0.359375 -0.515625 Z M 0.171875 -0.21875 "/></g></g></g><g clip-path="url(#e54bd71a98)"><path fill="#100f0d" d="M 19.476562 15.203125 C 19.582031 14.40625 20.597656 13.832031 19.957031 13.121094 C 19.957031 13.121094 20.277344 13.238281 20.261719 13.652344 C 20.261719 13.652344 20.707031 13.125 20.378906 12.554688 C 20.539062 12.054688 20.578125 11.441406 20.167969 11.027344 C 20.167969 11.027344 20.453125 11.445312 20.320312 11.867188 C 20.320312 11.867188 20.300781 10.875 19.070312 10.714844 C 19.070312 10.714844 19.679688 10.933594 19.871094 11.523438 C 19.871094 11.523438 19.886719 11.3125 19.734375 11.074219 C 19.734375 11.074219 20.191406 11.441406 20.011719 12.152344 C 20.011719 12.152344 19.90625 11.535156 19.40625 11.25 C 18.90625 10.964844 18.316406 10.851562 18.078125 10.4375 C 18.078125 10.4375 18.132812 10.789062 18.578125 11.011719 C 18.578125 11.011719 17.632812 10.851562 17.425781 10.003906 C 17.425781 10.003906 17.390625 10.664062 18.144531 10.984375 C 18.902344 11.304688 19.078125 11.566406 19.109375 11.8125 C 19.109375 11.8125 19.179688 11.589844 18.949219 11.308594 C 18.949219 11.308594 19.375 11.648438 19.382812 12.222656 C 19.382812 12.222656 19.503906 11.796875 19.265625 11.476562 C 19.265625 11.476562 19.621094 11.753906 19.535156 12.242188 C 19.535156 12.242188 19.941406 12.316406 20.105469 12.492188 C 20.105469 12.492188 19.457031 12.308594 18.972656 12.453125 C 18.972656 12.453125 19.210938 12.335938 19.464844 12.355469 C 19.464844 12.355469 18.835938 12.199219 18.203125 12.824219 C 18.203125 12.824219 18.5 12.296875 19.023438 12.234375 C 19.023438 12.234375 19.203125 11.515625 18.292969 11.175781 C 18.292969 11.175781 18.589844 11.351562 18.726562 11.621094 C 18.726562 11.621094 18.4375 11.246094 17.898438 11.042969 C 17.359375 10.839844 17.304688 10.628906 17.277344 10.539062 C 17.277344 10.539062 17.230469 11.027344 17.933594 11.320312 C 17.933594 11.320312 17.128906 11.226562 17.136719 10.371094 C 17.136719 10.371094 16.777344 11.558594 18.214844 11.777344 C 18.214844 11.777344 17.390625 11.820312 17.128906 11.355469 C 17.128906 11.355469 16.960938 11.945312 17.664062 12.222656 C 17.664062 12.222656 16.738281 12.160156 16.691406 11.128906 C 16.691406 11.128906 16.609375 11.394531 16.664062 11.613281 C 16.664062 11.613281 16.308594 11.007812 16.992188 10.449219 C 16.992188 10.449219 16.039062 10.953125 16.441406 11.855469 C 16.441406 11.855469 16.066406 11.433594 16.347656 10.90625 C 16.347656 10.90625 16.160156 11.140625 16.160156 11.386719 C 16.160156 11.386719 16.058594 10.707031 16.871094 10.28125 C 16.871094 10.28125 15.550781 10.4375 15.597656 11.789062 C 15.597656 11.789062 15.648438 11.382812 15.851562 11.171875 C 15.851562 11.171875 15.402344 12.109375 16.585938 12.769531 C 16.585938 12.769531 15.207031 12.605469 15.5625 11.160156 C 15.5625 11.160156 14.90625 12.539062 16.453125 12.804688 C 16.453125 12.804688 16.238281 13.027344 16.246094 13.328125 C 16.246094 13.328125 16.332031 12.992188 16.613281 12.828125 C 16.679688 12.835938 16.75 12.839844 16.824219 12.84375 C 16.824219 12.84375 16.289062 12.574219 16.105469 12.058594 C 16.105469 12.058594 16.550781 12.816406 17.421875 12.65625 C 17.421875 12.65625 16.863281 12.582031 16.515625 12.175781 C 16.515625 12.175781 17.386719 12.808594 18.308594 12.355469 C 18.308594 12.355469 18.070312 12.535156 17.957031 12.863281 C 17.957031 12.863281 18.15625 12.574219 18.351562 12.472656 C 18.351562 12.472656 18.101562 12.710938 18.042969 12.980469 C 18.042969 12.980469 18.738281 12.804688 19.300781 13.125 C 19.300781 13.125 18.796875 12.941406 18.375 13.042969 C 18.375 13.042969 18.527344 13.242188 18.625 13.527344 L 17.484375 13.515625 C 17.484375 13.515625 16.847656 13.242188 16.46875 13.546875 C 16.300781 13.664062 16.117188 13.332031 15.929688 13.578125 C 15.859375 13.664062 15.785156 14.21875 16.289062 14.234375 C 16.289062 14.234375 16.234375 14.398438 16.171875 14.421875 C 16.171875 14.421875 16.425781 14.382812 16.40625 13.804688 C 16.40625 13.804688 16.488281 13.730469 16.503906 13.839844 C 16.652344 14.878906 17.585938 14.433594 17.519531 13.765625 L 18.6875 13.757812 C 18.734375 13.996094 18.722656 14.273438 18.5625 14.535156 C 18.5625 14.535156 18.769531 14.296875 18.773438 14.070312 C 18.773438 14.070312 18.988281 15.265625 17.929688 14.835938 C 17.929688 14.835938 18.050781 14.976562 18.269531 15.046875 C 18.269531 15.046875 17.925781 15.046875 17.796875 14.734375 C 17.796875 14.734375 17.816406 14.925781 17.910156 15.050781 C 18 15.171875 17.972656 15.425781 17.703125 15.414062 C 17.703125 15.414062 18.082031 15.546875 18.109375 15.875 C 18.109375 15.875 18.042969 15.679688 17.839844 15.597656 C 17.839844 15.597656 18.175781 15.835938 18.027344 16.203125 C 18.027344 16.203125 18.074219 15.757812 17.632812 15.585938 C 17.632812 15.585938 17.769531 15.703125 17.851562 15.839844 C 17.851562 15.839844 17.640625 15.523438 17.171875 15.519531 C 17.171875 15.519531 17.558594 15.648438 17.277344 16.175781 C 17.277344 16.175781 17.484375 15.921875 17.449219 15.703125 C 17.449219 15.703125 17.578125 16.167969 17.074219 16.363281 C 17.074219 16.363281 17.347656 16.050781 17.261719 15.785156 C 17.261719 15.785156 17.265625 15.902344 17.234375 15.988281 C 17.234375 15.988281 17.28125 15.703125 17.089844 15.589844 C 17.089844 15.589844 17.328125 16.039062 16.648438 15.992188 C 16.648438 15.992188 16.9375 15.972656 17.027344 15.8125 C 17.027344 15.8125 16.78125 15.839844 16.644531 15.714844 C 16.507812 15.585938 16.222656 15.636719 16.242188 15.886719 C 16.242188 15.886719 16.175781 15.695312 16.328125 15.609375 C 16.328125 15.609375 16.09375 15.4375 16.210938 15.242188 C 16.328125 15.042969 16.558594 15.113281 16.671875 15.226562 C 16.785156 15.335938 17.128906 15.539062 17.457031 15.308594 C 17.457031 15.308594 17.3125 15.355469 17.152344 15.316406 C 17.152344 15.316406 17.804688 15.347656 17.691406 14.75 C 17.691406 14.75 17.632812 15.207031 17.070312 15.097656 C 17.070312 15.097656 17.332031 15.09375 17.460938 14.960938 C 17.460938 14.960938 17.132812 15.078125 16.863281 14.753906 C 16.863281 14.753906 16.894531 14.867188 16.960938 14.945312 C 16.960938 14.945312 16.78125 14.878906 16.753906 14.71875 C 16.753906 14.71875 16.746094 14.441406 16.480469 14.492188 C 16.480469 14.492188 16.648438 14.535156 16.609375 14.660156 C 16.609375 14.660156 16.410156 14.519531 16.273438 14.640625 C 16.273438 14.640625 16.316406 14.542969 16.367188 14.53125 C 16.367188 14.53125 16.289062 14.550781 16.210938 14.628906 C 16.132812 14.570312 16.140625 14.480469 16.140625 14.480469 C 16.070312 14.574219 16.160156 14.691406 16.160156 14.691406 C 16.136719 14.730469 16.113281 14.777344 16.101562 14.835938 C 16.101562 14.835938 16.15625 14.765625 16.1875 14.742188 C 16.1875 14.742188 16.199219 15.042969 15.863281 14.980469 C 15.863281 14.980469 15.9375 15.070312 16.070312 15.0625 C 16.070312 15.0625 15.890625 15.148438 15.785156 14.996094 C 15.785156 14.996094 15.816406 15.253906 16.113281 15.269531 C 16.113281 15.269531 16.191406 16.050781 15.726562 16.277344 C 15.726562 16.277344 15.980469 16.273438 16.09375 16.03125 C 16.09375 16.03125 16.042969 16.445312 15.722656 16.519531 C 15.722656 16.519531 15.871094 16.578125 16.03125 16.476562 C 16.03125 16.476562 15.679688 17.179688 16.605469 17.644531 C 16.605469 17.644531 16.148438 17.117188 16.425781 16.554688 C 16.425781 16.554688 16.144531 17.421875 17.117188 17.671875 C 17.117188 17.671875 17.398438 17.289062 17.125 16.808594 C 17.125 16.808594 17.492188 17.195312 17.246094 17.632812 C 17.246094 17.632812 18.136719 17.394531 18.28125 16.199219 C 18.28125 16.199219 18.28125 16.722656 18.140625 16.996094 C 18.140625 16.996094 19.054688 16.460938 18.878906 15.390625 C 18.878906 15.390625 19.015625 15.855469 18.933594 16.1875 C 18.933594 16.1875 19.28125 15.789062 19.089844 15.015625 C 18.894531 14.238281 18.996094 13.734375 19.15625 13.589844 C 19.15625 13.589844 19 13.667969 18.9375 13.855469 C 19.03125 13.121094 20.027344 13.207031 19.777344 13.941406 C 19.601562 14.472656 19.421875 14.554688 19.476562 15.203125 " fill-opacity="1" fill-rule="evenodd"/></g><g clip-path="url(#b99e1013f8)"><path fill="#100f0d" d="M 19.574219 16.242188 C 19.574219 16.242188 19.628906 16.609375 18.046875 17.304688 C 18.046875 17.304688 17.847656 17.539062 17.796875 17.8125 L 17.554688 17.8125 L 17.757812 17.707031 C 17.757812 17.707031 17.789062 17.5 17.921875 17.328125 C 17.945312 17.308594 17.964844 17.285156 17.984375 17.261719 C 18.023438 17.222656 18.066406 17.191406 18.113281 17.164062 C 18.410156 17.007812 19.609375 16.515625 19.496094 16.144531 C 19.496094 16.144531 19.636719 15.730469 19.910156 16.125 L 20.074219 16.898438 L 20.304688 16.953125 C 20.304688 16.953125 20.015625 17.980469 19.21875 18.730469 C 19.21875 18.730469 19.976562 17.71875 20.074219 17.042969 C 20.074219 17.042969 19.742188 17.5625 19.117188 17.957031 C 19.117188 17.957031 19.703125 17.433594 19.894531 17.054688 C 19.894531 17.054688 19.589844 17.40625 19.316406 17.523438 C 19.316406 17.523438 19.707031 17.171875 19.882812 16.914062 C 19.882812 16.914062 19.542969 17.226562 19.335938 17.316406 C 19.335938 17.316406 19.613281 17.039062 19.691406 16.933594 C 19.691406 16.933594 19.457031 17.15625 19.246094 17.265625 C 19.246094 17.265625 19.570312 16.972656 19.734375 16.746094 C 19.734375 16.746094 19.375 17.019531 19.101562 17.164062 C 19.101562 17.164062 19.429688 16.878906 19.578125 16.722656 C 19.578125 16.722656 19.214844 16.980469 18.96875 17.078125 C 18.96875 17.078125 19.597656 16.652344 19.800781 16.292969 C 19.800781 16.292969 19.824219 16.136719 19.691406 16.085938 C 19.554688 16.035156 19.574219 16.242188 19.574219 16.242188 Z M 17.46875 18.007812 L 17.886719 18.019531 C 17.886719 18.019531 18.484375 17.703125 18.828125 17.707031 C 18.828125 17.707031 18.457031 17.65625 18.132812 17.808594 C 18.132812 17.808594 18.519531 17.492188 18.777344 17.429688 C 18.777344 17.429688 18.253906 17.523438 17.949219 17.804688 C 17.949219 17.804688 18.136719 17.265625 18.917969 17.253906 C 18.917969 17.253906 19.207031 18.1875 18.777344 18.761719 C 18.777344 18.761719 18.28125 18.546875 17.816406 18.140625 L 17.523438 18.160156 C 17.523438 18.160156 17.183594 18.621094 16.6875 18.640625 C 16.6875 18.640625 16.523438 18.128906 16.554688 17.71875 C 16.554688 17.71875 17 17.777344 17.226562 17.882812 C 17.226562 17.882812 17.058594 17.859375 16.988281 17.871094 C 16.988281 17.871094 17.363281 17.925781 17.46875 18.007812 " fill-opacity="1" fill-rule="evenodd"/></g></svg>